<svg width="60" height="32" viewBox="0 0 60 32" fill="none" xmlns="http://www.w3.org/2000/svg">
<path d="M29.5 25.5C30.8807 25.5 32 21.4706 32 16.5C32 11.5294 30.8807 7.5 29.5 7.5C28.1193 7.5 27 11.5294 27 16.5C27 21.4706 28.1193 25.5 29.5 25.5Z" fill="#282828"/>
<path d="M28 4.996C25.7794 2.84072 22.9562 1.37682 19.8866 0.78881C16.8169 0.200802 13.638 0.514996 10.7506 1.69179C7.86314 2.86859 5.39636 4.85534 3.66117 7.4016C1.92598 9.94786 1 12.9397 1 16C1 19.0603 1.92598 22.0521 3.66117 24.5984C5.39636 27.1447 7.86314 29.1314 10.7506 30.3082C13.638 31.485 16.8169 31.7992 19.8866 31.2112C22.9562 30.6232 25.7794 29.1593 28 27.004C25.5455 23.8381 24.2169 19.9736 24.2169 16C24.2169 12.0264 25.5455 8.16187 28 4.996Z" fill="#506DE2"/>
<path d="M54.3683 5.04293C51.4047 2.14237 47.3866 0.508818 43.1941 0.500036C39.0016 0.491254 34.9763 2.10796 32 4.99607C34.4562 8.16459 35.7857 12.0318 35.7857 16.0081C35.7857 19.9844 34.4562 23.8517 32 27.0202C34.9831 29.9051 39.0137 31.516 43.2088 31.4999C47.4038 31.4838 51.4213 29.842 54.3811 26.9342C57.341 24.0264 59.0019 20.0897 59 15.9865C58.9981 11.8833 57.3335 7.94805 54.3709 5.04293H54.3683Z" fill="#282828"/>
</svg>
