<svg width="159" height="31" viewBox="0 0 159 31" fill="none" xmlns="http://www.w3.org/2000/svg">
<path d="M1 0V19.6875L12.375 8.34281H29V0H1Z" fill="white"/>
<path d="M17.6289 21.6594H1V30H29V10.3125L17.6289 21.6594Z" fill="white"/>
<path fill-rule="evenodd" clip-rule="evenodd" d="M87.0302 4.01064C92.9101 4.25131 96.6814 8.55795 96.6814 15.1169C96.6814 21.3154 92.7579 25.6435 87.0302 25.8783V21.8798C90.0278 21.6299 91.8551 19.0757 91.8551 15.0227C91.8551 10.8287 90.09 8.26878 87.0302 8.00997V4.01064ZM85.9261 4.01417C83.458 4.13568 81.268 5.03745 79.5279 6.66931C77.499 8.55352 76.3616 11.5055 76.3616 14.9285C76.3616 21.2698 80.1782 25.5884 85.9261 25.8733V21.8699C82.9447 21.5682 81.188 19.0214 81.188 14.9285C81.188 10.8533 82.9548 8.30546 85.9261 8.01591V4.01417ZM55.9345 8.49071V4.47105H40.6562V25.4173H56.1189V21.3976H45.2674V16.2788H54.5819V12.5732H45.2674V8.49071H55.9345ZM63.5054 25.4173V18.2886H67.8399C70.2069 18.2886 71.7747 17.692 73.0044 16.373C74.1725 15.1169 74.7566 13.4525 74.7566 11.5369C74.7566 9.27581 73.9573 7.36018 72.5433 6.07264C71.2214 4.8793 69.7458 4.47105 66.9484 4.47105H58.8943V25.4173H63.5054ZM67.1329 14.269H63.5054V8.49071H67.1329C68.9466 8.49071 70.0532 9.55844 70.0532 11.3798C70.0532 13.1699 68.9466 14.269 67.1329 14.269ZM119.277 23.9727L117.033 21.9315C118.355 20.1729 119.062 17.6606 119.062 14.897C119.062 8.3965 114.974 4 108.918 4C102.831 4 98.7425 8.3965 98.7425 14.9285C98.7425 21.4918 102.831 25.8883 108.887 25.8883C110.854 25.8883 112.637 25.4173 114.174 24.538L116.695 26.8304L119.277 23.9727ZM113.59 18.7911L111.869 17.1895L109.317 20.11L110.885 21.5232C110.27 21.7744 109.686 21.9001 108.948 21.9001C105.567 21.9001 103.569 19.325 103.569 14.9285C103.569 10.5948 105.567 7.98826 108.918 7.98826C112.238 7.98826 114.236 10.5948 114.236 14.897C114.236 16.4358 114.021 17.7548 113.59 18.7911ZM133.969 4.47105H138.581V18.6341C138.581 21.272 137.904 22.9364 136.367 24.0983C134.799 25.2602 132.709 25.8883 130.373 25.8883C128.006 25.8883 125.915 25.2602 124.348 24.0983C122.81 22.9364 122.134 21.272 122.134 18.6341V4.47105H126.745V18.32C126.745 19.7332 126.96 20.3613 127.575 20.9579C128.252 21.5546 129.235 21.9001 130.373 21.9001C131.479 21.9001 132.463 21.5546 133.139 20.9579C133.754 20.3613 133.969 19.7332 133.969 18.32V4.47105ZM157.602 8.49071V4.47105H142.324V25.4173H157.786V21.3976H146.935V16.2788H156.249V12.5732H146.935V8.49071H157.602Z" fill="white"/>
</svg>
